<?xml version="1.0" standalone="no"?>
<!DOCTYPE svg PUBLIC "-//W3C//DTD SVG 20010904//EN"
 "http://www.w3.org/TR/2001/REC-SVG-20010904/DTD/svg10.dtd">
<svg version="1.0" xmlns="http://www.w3.org/2000/svg"
 width="260.000000pt" height="260.000000pt" viewBox="0 0 260.000000 260.000000"
 preserveAspectRatio="xMidYMid meet">
<metadata>
Created by potrace 1.11, written by Peter Selinger 2001-2013
</metadata>
<g transform="translate(0.000000,260.000000) scale(0.100000,-0.100000)"
fill="#000000" stroke="none">
<path d="M1103 2574 c-500 -78 -916 -458 -1042 -952 -31 -118 -36 -170 -35
-337 1 -175 22 -287 85 -451 126 -325 395 -594 720 -723 70 -27 170 -57 227
-67 12 -2 34 -7 50 -10 15 -3 93 -7 173 -9 209 -5 378 29 554 110 351 162 612
469 710 836 32 122 40 186 40 339 0 114 -4 156 -21 259 -9 56 -61 205 -99 287
-113 247 -363 496 -609 609 -97 45 -222 86 -303 101 -13 2 -35 7 -50 10 -64
13 -311 12 -400 -2z"/>
</g>
</svg>
